<svg width="267" height="294" viewBox="0 0 267 294" fill="none" xmlns="http://www.w3.org/2000/svg">
<path d="M170.345 66.9007C188.426 90.5269 157.989 127.774 140.51 143.445L127.251 91.009C115.197 33.6311 90.8874 6.42889 80.2396 0C141.234 19.5278 162.308 57.9605 165.222 74.7359L170.345 66.9007Z" fill="white"/>
<path d="M178.481 94.9266C215.367 162.912 167.934 191.36 139.606 197.086C127.552 171.29 147.04 144.148 158.29 133.801C176.613 108.97 179.385 97.5384 178.481 94.9266Z" fill="white"/>
<path d="M98.6224 71.1196C106.096 75.9413 117.005 87.1919 121.525 92.2144C113.329 49.7837 87.3719 15.2686 75.4182 3.3149C83.8561 19.2264 81.3448 46.509 79.0344 58.1614L98.6224 71.1196Z" fill="white"/>
<path d="M117.909 97.9402C102.721 78.6535 81.6462 65.7957 73.0073 61.7777C66.9802 121.566 102.44 159.417 120.923 170.868C124.539 153.992 120.42 115.218 117.909 97.9402Z" fill="white"/>
<path d="M89.2799 149.17C83.1524 145.454 70.1138 124.7 66.9797 71.421C52.1129 90.3059 35.7594 132.295 89.2799 149.17Z" fill="white"/>
<path d="M54.926 140.431C63.1228 184.549 96.7138 196.784 112.485 197.387C113.931 197.479 117.105 186.777 118.512 181.415C110.315 168.638 83.3537 154.394 70.8978 148.869C66.3172 146.94 58.3413 142.44 54.926 140.431Z" fill="white"/>
<path d="M12.5966 263.026H26.4589V269.716H4.15869V227.646H12.5966V263.026ZM62.8616 252.297C62.8616 253.503 62.7812 254.588 62.6205 255.552H38.2108C38.4117 257.963 39.2555 259.851 40.7422 261.217C42.2289 262.584 44.0571 263.267 46.2268 263.267C49.3609 263.267 51.5909 261.921 52.9169 259.228H62.0178C61.0535 262.443 59.2052 265.095 56.4729 267.184C53.7406 269.233 50.3855 270.258 46.4076 270.258C43.1932 270.258 40.3002 269.555 37.7286 268.149C35.1973 266.702 33.2083 264.673 31.7618 262.061C30.3555 259.449 29.6523 256.436 29.6523 253.021C29.6523 249.565 30.3555 246.531 31.7618 243.92C33.1681 241.308 35.137 239.299 37.6684 237.893C40.1997 236.486 43.1128 235.783 46.4076 235.783C49.5819 235.783 52.4146 236.466 54.9058 237.832C57.4372 239.198 59.386 241.147 60.7521 243.679C62.1584 246.17 62.8616 249.043 62.8616 252.297ZM54.1223 249.886C54.0821 247.717 53.2986 245.989 51.7717 244.703C50.2449 243.377 48.3765 242.714 46.1666 242.714C44.0772 242.714 42.3092 243.357 40.8627 244.643C39.4564 245.888 38.5925 247.636 38.2711 249.886H54.1223ZM66.8508 252.9C66.8508 249.525 67.5137 246.531 68.8397 243.92C70.2058 241.308 72.0341 239.299 74.3244 237.893C76.6548 236.486 79.2465 235.783 82.0993 235.783C84.5905 235.783 86.7602 236.285 88.6086 237.29C90.497 238.294 92.0038 239.56 93.1289 241.087V236.326H101.627V269.716H93.1289V264.834C92.044 266.401 90.5372 267.707 88.6086 268.751C86.7201 269.756 84.5302 270.258 82.039 270.258C79.2264 270.258 76.6548 269.535 74.3244 268.088C72.0341 266.642 70.2058 264.613 68.8397 262.001C67.5137 259.349 66.8508 256.315 66.8508 252.9ZM93.1289 253.021C93.1289 250.971 92.7271 249.223 91.9235 247.777C91.1198 246.29 90.035 245.165 88.6688 244.402C87.3027 243.598 85.8361 243.196 84.269 243.196C82.702 243.196 81.2555 243.578 79.9295 244.342C78.6036 245.105 77.5187 246.23 76.6749 247.717C75.8713 249.163 75.4695 250.891 75.4695 252.9C75.4695 254.909 75.8713 256.677 76.6749 258.204C77.5187 259.691 78.6036 260.836 79.9295 261.639C81.2957 262.443 82.7422 262.845 84.269 262.845C85.8361 262.845 87.3027 262.463 88.6688 261.7C90.035 260.896 91.1198 259.771 91.9235 258.324C92.7271 256.838 93.1289 255.07 93.1289 253.021ZM125.177 243.257H119.331V269.716H110.772V243.257H106.975V236.326H110.772V234.638C110.772 230.54 111.937 227.526 114.268 225.597C116.598 223.669 120.114 222.765 124.815 222.885V229.997C122.766 229.957 121.34 230.298 120.536 231.022C119.732 231.745 119.331 233.051 119.331 234.939V236.326H125.177V243.257ZM175.684 240.665C175.684 242.915 175.142 245.025 174.057 246.993C173.012 248.962 171.345 250.549 169.055 251.755C166.805 252.96 163.952 253.563 160.496 253.563H153.444V269.716H145.007V227.646H160.496C163.751 227.646 166.523 228.209 168.814 229.334C171.104 230.459 172.812 232.006 173.937 233.975C175.102 235.944 175.684 238.174 175.684 240.665ZM160.135 246.752C162.465 246.752 164.193 246.23 165.318 245.185C166.443 244.1 167.005 242.594 167.005 240.665C167.005 236.567 164.715 234.517 160.135 234.517H153.444V246.752H160.135ZM196.502 270.258C193.287 270.258 190.394 269.555 187.823 268.149C185.251 266.702 183.222 264.673 181.736 262.061C180.289 259.449 179.566 256.436 179.566 253.021C179.566 249.605 180.309 246.592 181.796 243.98C183.323 241.368 185.392 239.359 188.004 237.953C190.615 236.506 193.529 235.783 196.743 235.783C199.957 235.783 202.871 236.506 205.482 237.953C208.094 239.359 210.143 241.368 211.63 243.98C213.157 246.592 213.92 249.605 213.92 253.021C213.92 256.436 213.137 259.449 211.57 262.061C210.043 264.673 207.953 266.702 205.301 268.149C202.69 269.555 199.757 270.258 196.502 270.258ZM196.502 262.905C198.029 262.905 199.455 262.543 200.781 261.82C202.147 261.057 203.232 259.932 204.036 258.445C204.839 256.958 205.241 255.15 205.241 253.021C205.241 249.846 204.397 247.415 202.71 245.728C201.062 244 199.033 243.136 196.622 243.136C194.212 243.136 192.182 244 190.535 245.728C188.928 247.415 188.124 249.846 188.124 253.021C188.124 256.195 188.908 258.646 190.475 260.374C192.082 262.061 194.091 262.905 196.502 262.905ZM232.887 270.258C230.155 270.258 227.704 269.776 225.534 268.812C223.364 267.807 221.637 266.461 220.351 264.773C219.105 263.086 218.422 261.217 218.302 259.168H226.8C226.961 260.454 227.583 261.519 228.668 262.363C229.793 263.206 231.179 263.628 232.827 263.628C234.434 263.628 235.68 263.307 236.564 262.664C237.488 262.021 237.95 261.197 237.95 260.193C237.95 259.108 237.387 258.304 236.262 257.782C235.177 257.219 233.43 256.617 231.019 255.974C228.528 255.371 226.478 254.748 224.871 254.105C223.304 253.463 221.938 252.478 220.773 251.152C219.648 249.826 219.085 248.038 219.085 245.788C219.085 243.94 219.607 242.252 220.652 240.725C221.737 239.198 223.264 237.993 225.233 237.109C227.242 236.225 229.592 235.783 232.284 235.783C236.262 235.783 239.437 236.788 241.807 238.797C244.178 240.765 245.484 243.437 245.725 246.813H237.649C237.528 245.487 236.965 244.442 235.961 243.679C234.997 242.875 233.691 242.473 232.043 242.473C230.516 242.473 229.331 242.754 228.487 243.317C227.684 243.879 227.282 244.663 227.282 245.667C227.282 246.793 227.844 247.656 228.97 248.259C230.095 248.822 231.842 249.404 234.213 250.007C236.624 250.61 238.613 251.233 240.18 251.875C241.747 252.518 243.093 253.523 244.218 254.889C245.383 256.215 245.986 257.983 246.026 260.193C246.026 262.121 245.484 263.849 244.399 265.376C243.354 266.903 241.827 268.108 239.818 268.992C237.849 269.836 235.539 270.258 232.887 270.258Z" fill="white"/>
<circle cx="257.357" cy="231.44" r="9.64334" fill="white"/>
<path d="M253.757 231.532C253.757 228.827 255.95 226.635 258.654 226.635H260.882C261.053 226.635 261.193 226.774 261.193 226.946V230.746C261.193 233.45 259 235.643 256.296 235.643H254.068C253.896 235.643 253.757 235.503 253.757 235.332V231.532Z" fill="#2F8451" stroke="white" stroke-width="0.0327554"/>
<path d="M260.947 226.848L253.97 235.43" stroke="white" stroke-width="0.163777" stroke-linecap="round"/>
</svg>
