<svg width="1440" height="1024" viewBox="0 0 1440 1024" fill="none" xmlns="http://www.w3.org/2000/svg">
<rect width="1440" height="1024" fill="white"/>
<path d="M781.632 379C811.632 418.2 761.132 480 732.132 506L710.132 419C690.132 323.8 649.799 278.667 632.132 268C733.332 300.4 768.299 364.167 773.132 392L781.632 379Z" fill="#2F8451"/>
<path d="M795.132 425.5C856.332 538.3 777.632 585.5 730.632 595C710.632 552.2 742.965 507.167 761.632 490C792.032 448.8 796.632 429.833 795.132 425.5Z" fill="#2F8451"/>
<path d="M662.632 386C675.032 394 693.132 412.667 700.632 421C687.032 350.6 643.965 293.333 624.132 273.5C638.132 299.9 633.965 345.167 630.132 364.5L662.632 386Z" fill="#2F8451"/>
<path d="M694.632 430.5C669.432 398.5 634.465 377.167 620.132 370.5C610.132 469.7 668.965 532.5 699.632 551.5C705.632 523.5 698.799 459.167 694.632 430.5Z" fill="#2F8451"/>
<path d="M647.132 515.5C636.965 509.333 615.332 474.9 610.132 386.5C585.465 417.833 558.332 487.5 647.132 515.5Z" fill="#2F8451"/>
<path d="M590.132 501C603.732 574.2 659.465 594.5 685.632 595.5C688.032 595.652 693.299 577.897 695.632 569C682.032 547.8 637.299 524.167 616.632 515C609.032 511.8 595.799 504.333 590.132 501Z" fill="#2F8451"/>
<path d="M519.9 704.9H542.9V716H505.9V646.2H519.9V704.9ZM603.298 687.1C603.298 689.1 603.165 690.9 602.898 692.5H562.398C562.732 696.5 564.132 699.633 566.598 701.9C569.065 704.167 572.098 705.3 575.698 705.3C580.898 705.3 584.598 703.067 586.798 698.6H601.898C600.298 703.933 597.232 708.333 592.698 711.8C588.165 715.2 582.598 716.9 575.998 716.9C570.665 716.9 565.865 715.733 561.598 713.4C557.398 711 554.098 707.633 551.698 703.3C549.365 698.967 548.198 693.967 548.198 688.3C548.198 682.567 549.365 677.533 551.698 673.2C554.032 668.867 557.298 665.533 561.498 663.2C565.698 660.867 570.532 659.7 575.998 659.7C581.265 659.7 585.965 660.833 590.098 663.1C594.298 665.367 597.532 668.6 599.798 672.8C602.132 676.933 603.298 681.7 603.298 687.1ZM588.798 683.1C588.732 679.5 587.432 676.633 584.898 674.5C582.365 672.3 579.265 671.2 575.598 671.2C572.132 671.2 569.198 672.267 566.798 674.4C564.465 676.467 563.032 679.367 562.498 683.1H588.798ZM609.917 688.1C609.917 682.5 611.017 677.533 613.217 673.2C615.484 668.867 618.517 665.533 622.317 663.2C626.184 660.867 630.484 659.7 635.217 659.7C639.351 659.7 642.951 660.533 646.017 662.2C649.151 663.867 651.651 665.967 653.517 668.5V660.6H667.617V716H653.517V707.9C651.717 710.5 649.217 712.667 646.017 714.4C642.884 716.067 639.251 716.9 635.117 716.9C630.451 716.9 626.184 715.7 622.317 713.3C618.517 710.9 615.484 707.533 613.217 703.2C611.017 698.8 609.917 693.767 609.917 688.1ZM653.517 688.3C653.517 684.9 652.851 682 651.517 679.6C650.184 677.133 648.384 675.267 646.117 674C643.851 672.667 641.417 672 638.817 672C636.217 672 633.817 672.633 631.617 673.9C629.417 675.167 627.617 677.033 626.217 679.5C624.884 681.9 624.217 684.767 624.217 688.1C624.217 691.433 624.884 694.367 626.217 696.9C627.617 699.367 629.417 701.267 631.617 702.6C633.884 703.933 636.284 704.6 638.817 704.6C641.417 704.6 643.851 703.967 646.117 702.7C648.384 701.367 650.184 699.5 651.517 697.1C652.851 694.633 653.517 691.7 653.517 688.3ZM706.691 672.1H696.991V716H682.791V672.1H676.491V660.6H682.791V657.8C682.791 651 684.724 646 688.591 642.8C692.457 639.6 698.291 638.1 706.091 638.3V650.1C702.691 650.033 700.324 650.6 698.991 651.8C697.657 653 696.991 655.167 696.991 658.3V660.6H706.691V672.1ZM790.491 667.8C790.491 671.533 789.591 675.033 787.791 678.3C786.058 681.567 783.291 684.2 779.491 686.2C775.758 688.2 771.025 689.2 765.291 689.2H753.591V716H739.591V646.2H765.291C770.691 646.2 775.291 647.133 779.091 649C782.891 650.867 785.725 653.433 787.591 656.7C789.525 659.967 790.491 663.667 790.491 667.8ZM764.691 677.9C768.558 677.9 771.425 677.033 773.291 675.3C775.158 673.5 776.091 671 776.091 667.8C776.091 661 772.291 657.6 764.691 657.6H753.591V677.9H764.691ZM825.031 716.9C819.698 716.9 814.898 715.733 810.631 713.4C806.365 711 802.998 707.633 800.531 703.3C798.131 698.967 796.931 693.967 796.931 688.3C796.931 682.633 798.165 677.633 800.631 673.3C803.165 668.967 806.598 665.633 810.931 663.3C815.265 660.9 820.098 659.7 825.431 659.7C830.765 659.7 835.598 660.9 839.931 663.3C844.265 665.633 847.665 668.967 850.131 673.3C852.665 677.633 853.931 682.633 853.931 688.3C853.931 693.967 852.631 698.967 850.031 703.3C847.498 707.633 844.031 711 839.631 713.4C835.298 715.733 830.431 716.9 825.031 716.9ZM825.031 704.7C827.565 704.7 829.931 704.1 832.131 702.9C834.398 701.633 836.198 699.767 837.531 697.3C838.865 694.833 839.531 691.833 839.531 688.3C839.531 683.033 838.131 679 835.331 676.2C832.598 673.333 829.231 671.9 825.231 671.9C821.231 671.9 817.865 673.333 815.131 676.2C812.465 679 811.131 683.033 811.131 688.3C811.131 693.567 812.431 697.633 815.031 700.5C817.698 703.3 821.031 704.7 825.031 704.7ZM885.401 716.9C880.867 716.9 876.801 716.1 873.201 714.5C869.601 712.833 866.734 710.6 864.601 707.8C862.534 705 861.401 701.9 861.201 698.5H875.301C875.567 700.633 876.601 702.4 878.401 703.8C880.267 705.2 882.567 705.9 885.301 705.9C887.967 705.9 890.034 705.367 891.501 704.3C893.034 703.233 893.801 701.867 893.801 700.2C893.801 698.4 892.867 697.067 891.001 696.2C889.201 695.267 886.301 694.267 882.301 693.2C878.167 692.2 874.767 691.167 872.101 690.1C869.501 689.033 867.234 687.4 865.301 685.2C863.434 683 862.501 680.033 862.501 676.3C862.501 673.233 863.367 670.433 865.101 667.9C866.901 665.367 869.434 663.367 872.701 661.9C876.034 660.433 879.934 659.7 884.401 659.7C891.001 659.7 896.267 661.367 900.201 664.7C904.134 667.967 906.301 672.4 906.701 678H893.301C893.101 675.8 892.167 674.067 890.501 672.8C888.901 671.467 886.734 670.8 884.001 670.8C881.467 670.8 879.501 671.267 878.101 672.2C876.767 673.133 876.101 674.433 876.101 676.1C876.101 677.967 877.034 679.4 878.901 680.4C880.767 681.333 883.667 682.3 887.601 683.3C891.601 684.3 894.901 685.333 897.501 686.4C900.101 687.467 902.334 689.133 904.201 691.4C906.134 693.6 907.134 696.533 907.201 700.2C907.201 703.4 906.301 706.267 904.501 708.8C902.767 711.333 900.234 713.333 896.901 714.8C893.634 716.2 889.801 716.9 885.401 716.9Z" fill="#2F8451"/>
<circle cx="926" cy="652" r="16" fill="#2F8451"/>
<path d="M920.027 652.152C920.027 647.665 923.665 644.027 928.152 644.027H931.848C932.133 644.027 932.364 644.258 932.364 644.543V650.848C932.364 655.335 928.726 658.973 924.239 658.973H920.543C920.258 658.973 920.027 658.742 920.027 658.457V652.152Z" fill="white" stroke="#2F8451" stroke-width="0.054347"/>
<path d="M931.957 644.38L920.38 658.62" stroke="#2F8451" stroke-width="0.271735" stroke-linecap="round"/>
</svg>
