<svg width="18" height="19" viewBox="0 0 18 19" fill="none" xmlns="http://www.w3.org/2000/svg">
<path d="M0 9.02393C0 9.57623 0.44772 10.0239 1 10.0239H7C7.5523 10.0239 8 9.57623 8 9.02393V1.02393C8 0.471646 7.5523 0.0239258 7 0.0239258H1C0.44772 0.0239258 0 0.471646 0 1.02393V9.02393ZM0 17.0239C0 17.5762 0.44772 18.0239 1 18.0239H7C7.5523 18.0239 8 17.5762 8 17.0239V13.0239C8 12.4716 7.5523 12.0239 7 12.0239H1C0.44772 12.0239 0 12.4716 0 13.0239V17.0239ZM10 17.0239C10 17.5762 10.4477 18.0239 11 18.0239H17C17.5523 18.0239 18 17.5762 18 17.0239V9.02393C18 8.47163 17.5523 8.02393 17 8.02393H11C10.4477 8.02393 10 8.47163 10 9.02393V17.0239ZM11 0.0239258C10.4477 0.0239258 10 0.471646 10 1.02393V5.02393C10 5.57621 10.4477 6.02393 11 6.02393H17C17.5523 6.02393 18 5.57621 18 5.02393V1.02393C18 0.471646 17.5523 0.0239258 17 0.0239258H11Z" fill="white"/>
</svg>
