<svg width="24" height="25" viewBox="0 0 24 25" fill="none" xmlns="http://www.w3.org/2000/svg">
<path fill-rule="evenodd" clip-rule="evenodd" d="M0 9.62744L14.6457 0.0239258L24 6.104L22.4911 6.56885L15.9951 2.35205L15.9183 2.29932C15.632 2.11842 15.2488 2.0201 14.8529 2.02596C14.4571 2.03182 14.0809 2.14138 13.8071 2.33057L13.2785 2.69385L13.2608 2.68213L10.7805 4.42041L1.2815 10.4575L0 9.62744ZM3.95965 15.0337L3.87106 15.4087C3.6378 16.4087 3.25984 18.0337 3.1063 18.6079C3.09584 18.6424 3.07898 18.6758 3.0561 18.7075C3.03874 18.7379 3.01267 18.7657 2.97933 18.7896C2.80383 18.9373 2.64494 19.0933 2.50394 19.2563C2.40092 19.371 2.32523 19.4955 2.27953 19.6255C2.25717 19.6898 2.25717 19.7565 2.27953 19.8208C2.30474 19.8798 2.35373 19.9331 2.42126 19.9751C3.8622 20.9321 5.39173 21.8989 6.79134 22.8755C7.00106 23.004 7.25129 23.1 7.52397 23.1568C7.79664 23.2135 8.08496 23.2295 8.36811 23.2036C8.89849 23.1584 9.42206 23.0833 9.93307 22.979C10.4882 22.8981 11.0347 22.793 11.5689 22.6646C12.1011 22.5292 12.5915 22.3306 13.0157 22.0786L14.2205 21.2466C14.2368 21.231 14.2556 21.2166 14.2766 21.2036C14.312 21.1802 14.4154 21.1118 14.5719 21.02C15.3691 20.5044 16.3435 19.8696 15.7913 19.3423L15.3868 19.0747L15.0915 19.2505L14.7047 19.4634C14.498 19.5825 14.3061 19.6958 14.1319 19.8091C14.0144 19.8868 13.8551 19.9304 13.689 19.9304C13.5229 19.9304 13.3635 19.8868 13.2461 19.8091C13.1286 19.7314 13.0626 19.626 13.0626 19.5161C13.0626 19.4062 13.1286 19.3008 13.2461 19.2231C13.4321 19.1001 13.6565 18.9673 13.8898 18.8325L13.9193 18.8169C14.7018 18.3579 15.5965 17.8403 15.1594 17.4106L14.6841 17.0962C14.5719 17.1724 14.4537 17.2446 14.3356 17.3169C14.2175 17.3892 14.0404 17.4966 13.8868 17.5825L13.8484 17.6021C13.6476 17.7192 13.4587 17.8286 13.2844 17.9438C13.2263 17.9823 13.1572 18.0128 13.0812 18.0337C13.0052 18.0545 12.9238 18.0652 12.8415 18.0652C12.7593 18.0652 12.6778 18.0545 12.6018 18.0337C12.5258 18.0128 12.4568 17.9823 12.3986 17.9438C12.3405 17.9054 12.2943 17.8597 12.2628 17.8094C12.2314 17.7592 12.2152 17.7053 12.2152 17.6509C12.2152 17.5965 12.2314 17.5426 12.2628 17.4923C12.2943 17.4421 12.3405 17.3964 12.3986 17.3579C12.5787 17.2388 12.8002 17.1079 13.0335 16.9673L13.0689 16.9458C13.8514 16.4888 14.7461 15.9692 14.312 15.5396C14.1467 15.4321 13.9783 15.3247 13.8189 15.2134L12.4961 16.0884C12.3786 16.1661 12.2193 16.2097 12.0532 16.2097C11.887 16.2097 11.7277 16.1661 11.6102 16.0884C11.4928 16.0107 11.4268 15.9053 11.4268 15.7954C11.4268 15.6855 11.4928 15.5801 11.6102 15.5024L14.2677 13.7446C14.5171 13.5883 14.7082 13.3957 14.8258 13.1821C14.9244 13.0065 14.9327 12.8143 14.8494 12.6353C14.8221 12.5812 14.7854 12.5294 14.7402 12.481C14.6966 12.4343 14.645 12.391 14.5866 12.3521C14.5273 12.3123 14.4609 12.2775 14.3888 12.2485C14.316 12.2197 14.2388 12.1961 14.1585 12.1782C13.8881 12.1245 13.5985 12.1314 13.3346 12.1978C13.0053 12.2841 12.7088 12.4174 12.4665 12.5884L6.07972 16.8325C5.96226 16.9102 5.80294 16.9539 5.63681 16.9539C5.47069 16.9539 5.31137 16.9102 5.1939 16.8325C5.07643 16.7548 5.01044 16.6494 5.01044 16.5396C5.01044 16.4297 5.07643 16.3243 5.1939 16.2466L5.47146 16.0649L3.94783 15.0356L3.95965 15.0337ZM6.95669 15.0884L10.7539 12.5767L10.6831 12.563C10.178 12.4533 9.73277 12.2478 9.40288 11.972C9.073 11.6963 8.87298 11.3625 8.82773 11.0121C8.78247 10.6617 8.89398 10.3103 9.14837 10.0015C9.40276 9.69273 9.7888 9.44025 10.2585 9.27548C10.7281 9.11072 11.2607 9.04095 11.7898 9.07484C12.319 9.10874 12.8214 9.24481 13.2345 9.46612C13.6476 9.68744 13.9532 9.98422 14.1133 10.3195C14.2734 10.6549 14.2809 11.0139 14.1348 11.3521C14.2762 11.3654 14.4155 11.387 14.5512 11.4165C14.7216 11.4536 14.885 11.5034 15.0384 11.5649C15.1935 11.6281 15.3371 11.7028 15.4665 11.7876C15.5227 11.8248 15.576 11.8639 15.626 11.9048L19.2283 9.479C18.905 9.25713 18.7267 8.95992 18.7323 8.65175C18.7378 8.34358 18.9266 8.04926 19.2579 7.83252L15.9626 5.60596C15.6274 5.82071 15.1777 5.93932 14.7111 5.93603C14.2445 5.93274 13.7987 5.80781 13.4705 5.58838L4.42913 11.7231C4.75642 11.9425 4.93993 12.2382 4.93993 12.5464C4.93993 12.8546 4.75642 13.1503 4.42913 13.3696L6.97146 15.0884H6.95669ZM16.0453 13.4126C15.8726 13.7718 15.5683 14.0973 15.1594 14.3599L14.7254 14.645L15.2392 14.9849L15.2864 15.02L15.3278 15.0571C15.5698 15.25 15.7147 15.4881 15.7422 15.7381C15.7698 15.9881 15.6785 16.2376 15.4813 16.4517H15.4961C15.5304 16.467 15.5629 16.484 15.5935 16.5024L16.0955 16.8364C16.1135 16.8467 16.1293 16.8586 16.1427 16.8716L16.1811 16.9048C16.4643 17.1387 16.6129 17.4314 16.6004 17.731C16.5769 17.9781 16.4524 18.2164 16.2402 18.4204L16.7392 18.7485L16.7864 18.7856L16.8219 18.8188C18.0443 19.9243 16.6211 20.8442 15.4724 21.5864C15.3957 21.647 15.2687 21.7212 15.1772 21.7817C14.7756 22.0591 14.2913 22.4341 13.878 22.6802C12.7205 23.3735 11.5807 23.5591 10.2608 23.772C9.67183 23.8927 9.0667 23.9757 8.45374 24.02C7.99728 24.0533 7.53532 24.0199 7.10057 23.922C6.66583 23.8241 6.26894 23.6642 5.93799 23.4536L1.57382 20.5669C1.35389 20.431 1.19196 20.2593 1.10433 20.0688C1.02357 19.8725 1.01547 19.6662 1.08071 19.4673C1.14068 19.2806 1.24008 19.1005 1.37598 18.9321C1.53383 18.7325 1.7176 18.5423 1.9252 18.3638C2.0374 17.9399 2.28248 16.8599 2.51575 15.8677C2.64862 15.272 2.77854 14.7114 2.87598 14.3052L0.422244 12.647L14.9409 2.95361L23.2766 8.58838L16.0453 13.4126Z" fill="white"/>
</svg>
