<svg width="24" height="25" viewBox="0 0 24 25" fill="none" xmlns="http://www.w3.org/2000/svg">
<g clip-path="url(#clip0_355_5202)">
<path fill-rule="evenodd" clip-rule="evenodd" d="M20.6039 0.227242L23.7825 4.5083C23.8997 4.6143 23.9752 4.78011 23.9752 4.96603C23.9752 5.02148 23.9686 5.07475 23.9559 5.12586L24 23.4444C24 23.763 23.7769 24.0218 23.5022 24.0218V24.0239H0.499687C0.223594 24.0239 0 23.7641 0 23.4444V4.96603C0 4.80294 0.058125 4.65562 0.151406 4.55016L3.40312 0.222893C3.50156 0.0929663 3.63937 0.0261003 3.77812 0.0261003V0.0239258H20.2238C20.3761 0.0239258 20.5125 0.102752 20.6039 0.227242ZM1.59609 4.38652H22.373L19.995 1.18294H4.00313L1.59609 4.38652ZM16.4381 13.6167C16.7616 13.6331 16.9917 13.7565 17.1244 13.9908C17.4844 14.6165 17.0325 15.2824 16.6514 15.6706L12.4003 19.9995C12.0384 20.4632 11.5233 20.4632 11.1619 19.9995C10.6683 19.3313 8.17125 16.7529 7.25156 15.5521C6.93281 15.1362 6.53859 14.5681 6.87047 13.9908C7.00359 13.7565 7.23328 13.6331 7.55719 13.6167H9.63984V9.45421C9.63984 9.19272 9.82406 8.97908 10.0495 8.97908H13.9509C14.1764 8.97908 14.3611 9.19326 14.3611 9.45421V13.6167H16.4381Z" fill="white"/>
</g>
<defs>
<clipPath id="clip0_355_5202">
<rect width="24" height="24" fill="white" transform="translate(0 0.0239258)"/>
</clipPath>
</defs>
</svg>
