<svg width="24" height="25" viewBox="0 0 24 25" fill="none" xmlns="http://www.w3.org/2000/svg">
<path fill-rule="evenodd" clip-rule="evenodd" d="M13.2617 1.74324C14.7324 -1.01906 19.7793 -0.451921 19.7793 3.44466V4.659C19.7793 5.2039 19.7617 5.21947 19.9355 5.50415C20.0664 5.72211 20.0977 5.74658 20.1426 6.01347C20.2012 6.36042 20.2051 6.71627 20.209 7.08102C20.2168 7.64816 20.0273 7.81052 19.7734 8.2709L18.6973 10.2259C18.3633 10.8353 18.3105 11.2089 18.4434 11.9784C18.7402 13.6932 22.7969 14.6584 24.002 15.2678V18.515H21.1621V17.3963L20.3789 17.0004C20.0156 16.8158 19.5176 16.6334 18.9434 16.4244C17.584 15.9262 15.6523 15.2189 15.5781 14.7897C15.541 14.5762 15.5254 14.4449 15.5352 14.3804C15.541 14.3382 15.582 14.2537 15.6563 14.1158H15.6543L16.7266 12.1675L16.8477 11.9629C17.1621 11.4402 17.373 11.0888 17.3633 10.1636C17.3613 9.94118 17.3574 9.721 17.3496 9.56087C17.3379 9.32289 17.3164 9.08269 17.2754 8.84027V8.83137C17.1895 8.32206 17.1289 8.19751 16.9336 7.87947V7.75937H16.9395V6.54502C16.9395 4.16081 15.6562 2.63954 14.0156 1.98122V1.97899C13.7695 1.87891 13.5176 1.80107 13.2617 1.74324ZM0 24.024V21.1572C1.20508 20.5478 5.66406 19.2 5.96094 17.4852C6.09375 16.7135 6.04102 16.3421 5.70703 15.7327L4.63086 13.7777C4.37891 13.3196 4.18945 13.155 4.19531 12.5878C4.19922 12.2698 4.20312 11.954 4.24414 11.647C4.29492 11.2556 4.33789 11.2423 4.51758 10.9287C4.63867 10.7174 4.625 10.6529 4.625 10.1658V8.95147C4.625 6.49609 6.62891 5.36181 8.47852 5.55086C10.0664 5.71099 11.541 6.84527 11.541 8.95147V10.1658C11.541 10.7107 11.5234 10.7263 11.6973 11.011C11.8281 11.2289 11.8594 11.2534 11.9043 11.5203C11.9629 11.8672 11.9668 12.2231 11.9707 12.5878C11.9785 13.155 11.7891 13.3173 11.5352 13.7777L10.459 15.7327C10.125 16.3421 10.0723 16.7157 10.2051 17.4852C10.502 19.2 14.5586 20.1653 15.7637 20.7747V24.0218L0 24.024ZM9.51758 4.24533C11.3438 2.19028 15.6211 2.95536 15.6211 6.5428V7.75714C15.6211 8.30426 15.6035 8.31761 15.7773 8.60229C15.9082 8.82025 15.9395 8.84471 15.9844 9.1116C16.043 9.45856 16.0469 9.81441 16.0508 10.1792C16.0586 10.7463 15.8691 10.9087 15.6152 11.369L14.5391 13.324C14.2051 13.9334 14.1523 14.307 14.2852 15.0766C14.582 16.7913 18.6387 17.7566 19.8438 18.366V21.6131H17.0801V19.805L16.2969 19.4091C15.9336 19.2245 15.4355 19.0421 14.8613 18.833C13.502 18.3348 11.5703 17.6276 11.4961 17.1983C11.459 16.9826 11.4434 16.8536 11.4531 16.7891C11.459 16.7469 11.5 16.6623 11.5742 16.5244H11.5723L12.6445 14.5762L12.7656 14.3715C13.0801 13.8489 13.291 13.4975 13.2812 12.5723C13.2793 12.3476 13.2754 12.1274 13.2676 11.9695C13.2559 11.7316 13.2344 11.4914 13.1934 11.2489V11.2423C13.1074 10.733 13.0469 10.6084 12.8516 10.2904V10.1703H12.8574V8.95592C12.8574 7.53251 12.3789 6.40045 11.6309 5.57088C11.0527 4.92367 10.3125 4.4833 9.51758 4.24533Z" fill="white"/>
</svg>
