<svg width="24" height="25" viewBox="0 0 24 25" fill="none" xmlns="http://www.w3.org/2000/svg">
<path d="M20.1215 20.2546L22.5904 22.6432L20.8857 24.0241L18.5049 21.6999C17.5997 22.2331 16.5095 22.5475 15.34 22.5475C13.7631 22.5475 12.3359 21.9811 11.3051 21.0671C10.27 20.1491 9.63568 18.8835 9.63568 17.4889C9.63568 16.0905 10.2744 14.8249 11.3051 13.9108C12.3403 12.9928 13.7675 12.4303 15.34 12.4303C16.9169 12.4303 18.3441 12.9967 19.3749 13.9108C20.41 14.8288 21.0443 16.0944 21.0443 17.4889C21.0443 18.5104 20.7029 19.4635 20.1149 20.2624L20.1215 20.2546ZM23.1763 1.69205C23.3084 1.66862 23.445 1.69205 23.5573 1.7526C23.7511 1.82291 23.8877 1.99088 23.8877 2.18815L24 15.9714C24.0088 16.1413 23.9163 16.3092 23.7401 16.401L23.0684 16.7565C23.0485 16.5846 22.7909 15.7995 22.9296 15.7253L22.8261 2.96744L17.6063 5.88541V10.8268C17.2583 10.7292 16.8222 10.653 16.4566 10.5983V6.02213L9.51014 5.22721L9.27888 11.1823L6.81215 9.69205L4.34542 10.9284L4.85418 4.70182L1.1761 4.4108V17.3268L7.34955 17.9206C7.37377 18.2428 7.42223 18.6061 7.4927 18.9147L0.508763 18.2272C0.224649 18.2135 -4.06464e-07 18.0065 -4.06464e-07 17.7506V3.73307C-0.00660773 3.54557 0.114527 3.36393 0.319354 3.28385L8.58511 0.0631466C8.67101 0.0299435 8.77012 0.0162716 8.86923 0.0260373L23.1763 1.69205ZM15.4215 1.74674L10.3449 4.26237L17.0843 5.02604L21.7051 2.47721L15.4215 1.74674ZM5.51271 3.81901L10.5365 1.17838L8.88024 0.985022L2.48876 3.47721L5.51271 3.81901ZM18.6569 14.5475C17.8089 13.7956 16.6394 13.3307 15.3466 13.3307C14.0516 13.3307 12.8821 13.7956 12.0363 14.5475C11.1884 15.2995 10.6642 16.3366 10.6642 17.4831C10.6642 18.6315 11.1884 19.6686 12.0363 20.4186C12.8843 21.1706 14.0538 21.6354 15.3466 21.6354C16.6416 21.6354 17.8111 21.1706 18.6569 20.4186C19.5048 19.6667 20.029 18.6296 20.029 17.4831C20.029 16.3346 19.5026 15.2975 18.6569 14.5475Z" fill="white"/>
</svg>
