<svg width="24" height="25" viewBox="0 0 24 25" fill="none" xmlns="http://www.w3.org/2000/svg">
<path fill-rule="evenodd" clip-rule="evenodd" d="M3.44866 20.4086H0L0.0142675 20.7739C0.0428025 21.5141 0.197707 22.1782 0.538089 22.7289C0.886624 23.2953 1.42064 23.7328 2.19924 24.0024L2.32357 24.0239H21.8701L21.811 23.9653C22.3205 23.893 22.771 23.7407 23.1317 23.4575C23.6902 23.02 24.0061 22.3051 23.9552 21.143L24 0.0297215H6.42038C4.33732 -0.0581691 3.40994 1.06292 3.4507 2.83636H3.44866V20.4086ZM19.9786 11.4555H17.6713V11.1059C17.6713 10.7328 17.6448 10.4907 17.5918 10.3774C17.5389 10.2621 17.4268 10.2035 17.2494 10.2035C17.1088 10.2035 17.0028 10.2543 16.9335 10.352C16.8642 10.4516 16.8275 10.6 16.8275 10.7993C16.8275 11.1293 16.8989 11.3618 17.0436 11.4926C17.1842 11.6254 17.6 11.8813 18.2889 12.2641C18.8739 12.5883 19.2754 12.8364 19.4874 13.0082C19.6994 13.1821 19.8808 13.4243 20.0255 13.7387C20.1722 14.0551 20.2456 14.4457 20.2456 14.9164C20.2456 15.6664 20.0479 16.2563 19.6525 16.686C19.2571 17.1137 18.6599 17.3774 17.869 17.4789V18.27H16.8031V17.4575C16.1855 17.4028 15.6474 17.184 15.1868 16.8071C14.7261 16.4301 14.4958 15.7719 14.4958 14.8325V14.4184H16.8031V14.934C16.8031 15.5004 16.8255 15.852 16.8744 15.9887C16.9213 16.1254 17.0375 16.1938 17.2189 16.1938C17.3758 16.1938 17.492 16.145 17.5674 16.0512C17.6428 15.9555 17.6815 15.8129 17.6815 15.6254C17.6815 15.1528 17.6448 14.8149 17.5715 14.6118C17.5001 14.4086 17.2535 14.186 16.8296 13.9457C16.1243 13.5414 15.6474 13.2446 15.3926 13.0551C15.1399 12.8637 14.9197 12.5981 14.7363 12.2524C14.5508 11.9086 14.4591 11.52 14.4591 11.0844C14.4591 10.4555 14.6548 9.96136 15.0441 9.60199C15.4354 9.24261 16.0204 9.02191 16.801 8.93792V8.26605H17.867V8.93988C18.5804 9.02386 19.1124 9.24066 19.467 9.59417C19.8196 9.94769 19.999 10.436 19.999 11.0571C20.001 11.145 19.9949 11.2778 19.9786 11.4555ZM7.05834 12.5785C6.85656 12.5785 6.6935 12.4203 6.6935 12.225C6.6935 12.0297 6.85656 11.8715 7.05834 11.8715H10.9819C11.1837 11.8715 11.3468 12.0297 11.3468 12.225C11.3468 12.4203 11.1837 12.5785 10.9819 12.5785H7.05834ZM7.05834 5.3598C6.85452 5.3598 6.68943 5.20355 6.68943 5.00824C6.68943 4.81488 6.85452 4.65667 7.05834 4.65667H20.0785C20.2823 4.65667 20.4474 4.81292 20.4474 5.00824C20.4474 5.2016 20.2823 5.3598 20.0785 5.3598H7.05834ZM7.05834 8.96917C6.85452 8.96917 6.69147 8.81097 6.69147 8.61761C6.69147 8.4223 6.85656 8.26605 7.05834 8.26605H13.0772C13.281 8.26605 13.4441 8.42425 13.4441 8.61761C13.4441 8.81097 13.279 8.96917 13.0772 8.96917H7.05834ZM19.8155 22.3266C19.8828 22.6645 20.0194 22.9965 20.2334 23.3207H2.38471C1.81605 23.1118 1.42471 22.7856 1.16994 22.3735C0.951847 22.018 0.827516 21.5922 0.774522 21.1157H19.842C19.7524 21.5239 19.7361 21.9282 19.8155 22.3266ZM21.1526 23.3168C20.8061 22.9477 20.6125 22.5746 20.5371 22.1938C20.4535 21.7739 20.5126 21.3325 20.6696 20.8696L20.8265 20.4086H4.18446V2.83636H4.18242C4.18446 1.44183 4.76739 0.619565 6.36535 0.72894L6.40611 0.730893H23.2194V21.1391L23.2214 21.1547C23.2642 22.0707 23.0502 22.6078 22.667 22.9086C22.3062 23.1938 21.7743 23.2953 21.1526 23.3168Z" fill="white"/>
</svg>
