<svg width="24" height="25" viewBox="0 0 24 25" fill="none" xmlns="http://www.w3.org/2000/svg">
<g clip-path="url(#clip0_355_5233)">
<path fill-rule="evenodd" clip-rule="evenodd" d="M15.9735 1.89171L10.4901 5.12437L16.924 5.98657L22.2145 2.73093L15.9735 1.89171ZM17.2425 11.5058C20.7465 11.5058 23.587 14.308 23.587 17.7648C23.587 21.2216 20.7465 24.0238 17.2425 24.0238C13.7385 24.0238 10.8984 21.2216 10.8984 17.7648C10.8984 14.308 13.7385 11.5058 17.2425 11.5058ZM16.6755 14.7211C16.6731 14.8247 16.6907 14.8744 16.7819 14.8744H18.1891C18.5874 14.9058 18.9443 15.0099 19.2456 15.2106C19.4543 15.3507 19.6078 15.6114 19.7228 15.7952C19.9267 16.122 20.0426 16.5946 20.1053 16.9753C20.132 17.1398 20.1443 17.2946 20.1153 17.3654C20.1025 17.3991 20.0811 17.4221 20.055 17.4324C19.9038 17.4919 19.7432 17.2871 19.6581 17.1886C19.2528 16.7207 18.663 16.5271 17.9682 16.4905H16.7496C16.6774 16.5027 16.6517 16.5552 16.6593 16.6363V17.1947C16.6551 17.3808 16.56 17.4441 16.3718 17.3813L14.6405 16.0409L14.4699 15.9087L14.4261 15.8749C14.2874 15.7516 14.3444 15.5458 14.4694 15.4487L14.6015 15.3465L16.2611 14.0577C16.4631 13.9006 16.6755 13.858 16.6755 14.1969V14.7211ZM17.8099 20.809C17.8118 20.7049 17.7947 20.6547 17.7034 20.6547H16.2958C15.8975 20.6238 15.5406 20.5197 15.2398 20.3186C15.0302 20.1784 14.8757 19.9163 14.7607 19.7311C14.5526 19.3954 14.4152 18.8478 14.3653 18.4554C14.3501 18.3307 14.3472 18.2205 14.3691 18.1643C14.3824 18.131 14.4043 18.1075 14.4309 18.0972C14.5815 18.0377 14.7417 18.243 14.8268 18.341C15.2326 18.8089 15.8224 19.0025 16.5172 19.0391H17.7358C17.8075 19.0269 17.8332 18.9744 17.8261 18.8933V18.3349C17.8303 18.1493 17.9249 18.086 18.1136 18.1483L19.8449 19.4887L20.015 19.621L20.0583 19.6547C20.198 19.778 20.1405 19.9838 20.0155 20.0809L19.8834 20.1831L18.2243 21.4719C18.0219 21.629 17.8099 21.6717 17.8099 21.3327V20.809ZM9.7345 5.93734L9.73022 12.5813L7.28507 10.9385L4.83945 12.3014L5.12935 5.31988L0.921505 4.75586V19.4297L9.42606 20.5146C9.54582 20.847 9.68602 21.17 9.84665 21.4813L0.44198 20.2815C0.196277 20.2717 0 20.0715 0 19.8272V4.23685C0.0128317 4.04697 0.0898218 3.91382 0.271842 3.8238L8.67184 0.0636939C8.74693 0.0299373 8.8396 0.0163409 8.92182 0.0280619L23.568 1.9986C23.8099 2.02626 23.9758 2.22224 23.9758 2.46698V2.46791L24 13.1936C23.7282 12.797 23.26 12.2423 23.0528 11.8916V3.2851L17.549 6.79813V9.60228C17.2417 9.59105 16.9341 9.59669 16.6275 9.61915V6.86143L9.7345 5.93734ZM5.86028 4.50362L11.1911 1.24846L8.9299 0.944178L2.1025 3.99962L5.86028 4.50362Z" fill="white"/>
</g>
<defs>
<clipPath id="clip0_355_5233">
<rect width="24" height="24" fill="white" transform="translate(0 0.0239258)"/>
</clipPath>
</defs>
</svg>
