<svg width="20" height="25" viewBox="0 0 20 25" fill="none" xmlns="http://www.w3.org/2000/svg">
<path fill-rule="evenodd" clip-rule="evenodd" d="M20 0.730957V23.3149C20 23.7036 19.6323 24.022 19.1833 24.022H0.816695C0.367738 24.022 0 23.7036 0 23.3149V0.730957C0 0.342285 0.367738 0.0239258 0.816695 0.0239258H19.181C19.6323 0.0239258 20 0.342285 20 0.730957ZM3.34574 16.5942C3.21263 16.5942 3.10209 16.4985 3.10209 16.3813C3.10209 16.2642 3.21038 16.1685 3.34574 16.1685H16.6949C16.828 16.1685 16.9385 16.2642 16.9385 16.3813C16.9385 16.4985 16.8302 16.5942 16.6949 16.5942H3.34574ZM3.34574 18.606C3.21263 18.606 3.10209 18.5103 3.10209 18.3931C3.10209 18.2759 3.21038 18.1802 3.34574 18.1802H16.6949C16.828 18.1802 16.9385 18.2759 16.9385 18.3931C16.9385 18.5103 16.8302 18.606 16.6949 18.606H3.34574ZM14.705 5.89697L16.7242 5.90283C16.7219 6.36963 16.5054 6.81494 16.1218 7.14307C16.0316 7.22119 15.9323 7.28955 15.8263 7.35205L14.705 5.89697ZM6.09137 4.52588H6.70728C6.74112 4.52588 6.76593 4.54932 6.76593 4.57666V6.4751C6.76593 6.50244 6.73886 6.52588 6.70728 6.52588H6.09137C6.05979 6.52588 6.03271 6.50244 6.03271 6.4751V4.57666C6.03271 4.54932 6.05979 4.52588 6.09137 4.52588ZM3.30964 3.88525H3.92555C3.95939 3.88525 3.98421 3.90869 3.98421 3.93604V6.4751C3.98421 6.5044 3.95713 6.52588 3.92555 6.52588H3.30964C3.2758 6.52588 3.25099 6.50244 3.25099 6.4751V3.93604C3.24873 3.90674 3.2758 3.88525 3.30964 3.88525ZM4.69938 3.52393H5.31528C5.34913 3.52393 5.37394 3.54736 5.37394 3.57471V6.4751C5.37394 6.5044 5.34687 6.52588 5.31528 6.52588H4.69938C4.66554 6.52588 4.64072 6.50244 4.64072 6.4751V3.57471C4.64072 3.54736 4.66779 3.52393 4.69938 3.52393ZM3.34574 12.4185C3.21263 12.4185 3.10209 12.3228 3.10209 12.2056C3.10209 12.0884 3.21038 11.9927 3.34574 11.9927H16.6949C16.828 11.9927 16.9385 12.0884 16.9385 12.2056C16.9385 12.3228 16.8302 12.4185 16.6949 12.4185H3.34574ZM3.30513 10.3892C3.17202 10.3892 3.06148 10.2935 3.06148 10.1763C3.06148 10.0591 3.16977 9.96338 3.30513 9.96338H7.07953C7.21263 9.96338 7.32318 10.0591 7.32318 10.1763C7.32318 10.2935 7.21489 10.3892 7.07953 10.3892H3.30513ZM8.02482 10.3892C7.89171 10.3892 7.78116 10.2935 7.78116 10.1763C7.78116 10.0591 7.88945 9.96338 8.02482 9.96338H16.6949C16.828 9.96338 16.9385 10.0591 16.9385 10.1763C16.9385 10.2935 16.8302 10.3892 16.6949 10.3892H8.02482ZM3.30513 8.52588C3.17202 8.52588 3.06148 8.43018 3.06148 8.31299C3.06148 8.1958 3.16977 8.1001 3.30513 8.1001H10.599C10.7321 8.1001 10.8426 8.1958 10.8426 8.31299C10.8426 8.43018 10.7343 8.52588 10.599 8.52588H3.30513ZM14.4997 5.55127L14.3914 3.68213C14.3892 3.64502 14.423 3.61377 14.4659 3.61182C14.4772 3.61182 14.4929 3.60986 14.5087 3.60986C14.5223 3.60986 14.5358 3.60986 14.5516 3.60986C15.145 3.604 15.6887 3.79932 16.0948 4.12354C16.5008 4.44775 16.7693 4.90088 16.8122 5.4126C16.8144 5.44971 16.7829 5.48096 16.74 5.48486L14.5809 5.61768C14.5381 5.61963 14.502 5.59229 14.4975 5.55518C14.4997 5.55518 14.4997 5.55322 14.4997 5.55127ZM14.5494 3.74463L14.6486 5.48096L16.6497 5.35791C16.5933 4.90869 16.3497 4.51221 15.9887 4.22315C15.6097 3.92041 15.1043 3.74072 14.5516 3.74463H14.5494ZM14.2561 5.8169L15.339 7.43994C15.0096 7.604 14.6373 7.6919 14.2561 7.6919C13.0603 7.6919 12.0902 6.85205 12.0902 5.8169C12.0902 4.88721 12.8776 4.09815 13.9402 3.96338L14.2561 5.8169ZM3.30513 14.5669C3.17202 14.5669 3.06148 14.4712 3.06148 14.354C3.06148 14.2368 3.16977 14.1411 3.30513 14.1411H7.07953C7.21263 14.1411 7.32318 14.2368 7.32318 14.354C7.32318 14.4712 7.21489 14.5669 7.07953 14.5669H3.30513ZM8.02482 14.5669C7.89171 14.5669 7.78116 14.4712 7.78116 14.354C7.78116 14.2368 7.88945 14.1411 8.02482 14.1411H16.6949C16.828 14.1411 16.9385 14.2368 16.9385 14.354C16.9385 14.4712 16.8302 14.5669 16.6949 14.5669H8.02482ZM9.99887 21.6685C10.5155 21.6685 10.9351 22.0317 10.9351 22.479C10.9351 22.9263 10.5155 23.2896 9.99887 23.2896C9.48223 23.2896 9.0626 22.9263 9.0626 22.479C9.06486 22.0317 9.48223 21.6685 9.99887 21.6685ZM18.8923 1.28564V20.9478H1.22279V1.28564H18.8923Z" fill="white"/>
</svg>
