<svg width="16" height="16" viewBox="0 0 16 16" fill="none" xmlns="http://www.w3.org/2000/svg">
<path fill-rule="evenodd" clip-rule="evenodd" d="M15.0851 1.63525V6.43018H10.2572H9.68814L10.0901 6.02979L11.4974 4.63208C11.4052 4.54297 11.3081 4.4563 11.2073 4.37451C11.0746 4.26709 10.9344 4.16455 10.7919 4.07178C10.052 3.59204 9.16822 3.31372 8.21813 3.31372H8.2169V3.3125C6.91527 3.3125 5.73656 3.8374 4.88356 4.68457C4.03056 5.53174 3.50205 6.70239 3.50205 7.9939H3.50328V8H3.50205C3.50205 9.29272 4.03056 10.4646 4.88356 11.3105C5.73656 12.1577 6.91527 12.6826 8.21567 12.6826V12.6814H8.2255V12.6826C8.68027 12.6826 9.13381 12.6167 9.56891 12.4885C9.80859 12.4177 10.0446 12.3262 10.2707 12.2175C11.4249 11.6633 12.3172 10.655 12.713 9.42578L12.7658 9.26343H15.6677L15.61 9.54419L15.6087 9.55151V9.55273C15.5092 10.0215 15.3617 10.4829 15.1736 10.9248V10.926C14.9893 11.3594 14.7594 11.7781 14.4952 12.1699C13.1407 14.1755 10.8349 15.4976 8.22058 15.4976H8.21813V15.4963C6.13356 15.4963 4.24443 14.6565 2.88012 13.3003V13.2991C1.51336 11.9465 0.668962 10.0728 0.667733 8.00366H0.666504V7.99756H0.667733C0.667733 5.92725 1.51336 4.05225 2.88012 2.69604C4.24443 1.34106 6.13111 0.502441 8.21444 0.501221V0.5H8.22181V0.501221C9.29236 0.501221 10.3125 0.724609 11.2344 1.12378C11.3831 1.18848 11.533 1.25806 11.6768 1.33252C12.3504 1.67798 12.9637 2.12109 13.4996 2.64355L14.6808 1.47046L15.0827 1.07129V1.63525H15.0851Z" fill="white"/>
</svg>
