<svg width="15" height="16" viewBox="0 0 15 16" fill="none" xmlns="http://www.w3.org/2000/svg">
<path fill-rule="evenodd" clip-rule="evenodd" d="M14.4186 1.63525V6.43018H9.59071H9.02163L9.42355 6.02979L10.8309 4.63208C10.7387 4.54297 10.6416 4.4563 10.5408 4.37451C10.4081 4.26709 10.2679 4.16455 10.1254 4.07178C9.38545 3.59204 8.50172 3.31372 7.55162 3.31372H7.55039V3.3125C6.24877 3.3125 5.07006 3.8374 4.21706 4.68457C3.36406 5.53174 2.83555 6.70239 2.83555 7.9939H2.83677V8H2.83555C2.83555 9.29272 3.36406 10.4646 4.21706 11.3105C5.07006 12.1577 6.24877 12.6826 7.54916 12.6826V12.6814H7.559V12.6826C8.01377 12.6826 8.46731 12.6167 8.90241 12.4885C9.14208 12.4177 9.37807 12.3262 9.60423 12.2175C10.7584 11.6633 11.6507 10.655 12.0465 9.42578L12.0993 9.26343H15.0012L14.9435 9.54419L14.9422 9.55151V9.55273C14.8427 10.0215 14.6952 10.4829 14.5071 10.9248V10.926C14.3228 11.3594 14.0929 11.7781 13.8287 12.1699C12.4742 14.1755 10.1684 15.4976 7.55408 15.4976H7.55162V15.4963C5.46706 15.4963 3.57793 14.6565 2.21362 13.3003V13.2991C0.846853 11.9465 0.00245821 10.0728 0.00122911 8.00366H0V7.99756H0.00122911C0.00122911 5.92725 0.846853 4.05225 2.21362 2.69604C3.57793 1.34106 5.4646 0.502441 7.54793 0.501221V0.5H7.55531V0.501221C8.62586 0.501221 9.64602 0.724609 10.5678 1.12378C10.7166 1.18848 10.8665 1.25806 11.0103 1.33252C11.6839 1.67798 12.2972 2.12109 12.8331 2.64355L14.0143 1.47046L14.4162 1.07129V1.63525H14.4186Z" fill="#2F8451"/>
</svg>
