<svg width="24" height="25" viewBox="0 0 24 25" fill="none" xmlns="http://www.w3.org/2000/svg">
<path d="M5.25774 17.0005C4.88114 17.0005 4.57945 16.7153 4.57945 16.3638C4.57945 16.0122 4.88531 15.7271 5.25774 15.7271H9.729C10.1056 15.7271 10.4073 16.0122 10.4073 16.3638C10.4073 16.7153 10.1035 17.0005 9.729 17.0005H5.25774ZM12.7126 15.1548C12.5129 15.1548 12.3423 14.9946 12.3423 14.7993C12.3423 14.6118 12.5129 14.4517 12.7126 14.4517H13.6801C13.6884 14.4517 13.7092 14.4517 13.7176 14.4517C14.0588 14.4595 14.3625 14.522 14.6185 14.6743C14.9035 14.8442 15.1116 15.1021 15.226 15.4849C15.226 15.4927 15.226 15.5024 15.2364 15.5122L15.3321 15.8677H23.6317C23.8398 15.8677 24.0021 16.0278 24.0021 16.2153C24.0021 16.2505 23.9917 16.2856 23.9834 16.3228L23.0159 19.9829C22.9784 20.1431 22.8265 20.2505 22.6559 20.2505H16.5847C16.7178 20.7134 16.851 20.9634 17.0299 21.0786C17.2484 21.2114 17.627 21.2212 18.2637 21.2114H18.272H22.5602C22.7683 21.2114 22.9306 21.3716 22.9306 21.5591C22.9306 21.7544 22.7599 21.9067 22.5602 21.9067H18.27C17.4814 21.9146 16.9987 21.897 16.6096 21.6567C16.2101 21.4067 16.0021 20.981 15.794 20.2056L14.5228 15.688C14.5228 15.6782 14.5228 15.6782 14.5144 15.6704C14.4583 15.4751 14.3625 15.3403 14.2294 15.27C14.0962 15.1899 13.9173 15.1548 13.7072 15.1548C13.6967 15.1548 13.6884 15.1548 13.678 15.1548H12.7126ZM21.4492 22.3149C21.9527 22.3149 22.3605 22.6978 22.3605 23.1704C22.3605 23.6431 21.9527 24.0259 21.4492 24.0259C20.9456 24.0259 20.5378 23.6431 20.5378 23.1704C20.5378 22.6978 20.9456 22.3149 21.4492 22.3149ZM17.4544 22.3149C17.9579 22.3149 18.3657 22.6978 18.3657 23.1704C18.3657 23.6431 17.9579 24.0259 17.4544 24.0259C16.9508 24.0259 16.543 23.6431 16.543 23.1704C16.543 22.6978 16.9529 22.3149 17.4544 22.3149ZM5.25774 6.58252C4.88114 6.58252 4.57945 6.29541 4.57945 5.9458C4.57945 5.59424 4.88531 5.30908 5.25774 5.30908H15.7691C16.1456 5.30908 16.4473 5.59424 16.4473 5.9458C16.4473 6.29736 16.1436 6.58252 15.7691 6.58252H5.25774ZM1.57503 0.0239258H19.3914C19.8263 0.0239258 20.2216 0.189941 20.5046 0.455566C20.7875 0.721191 20.9644 1.09229 20.9644 1.50049V13.2153H19.612V1.50635C19.612 1.44971 19.587 1.39697 19.5475 1.35791C19.5059 1.3208 19.4497 1.29736 19.3893 1.29736H1.57503C1.51469 1.29736 1.45852 1.3208 1.41691 1.35791C1.37529 1.39502 1.35449 1.44971 1.35449 1.50635V20.7778C1.35449 20.8345 1.37945 20.8872 1.41899 20.9263C1.45852 20.9653 1.51469 20.9868 1.57711 20.9868H13.0309C13.1579 21.4536 13.3014 21.8618 13.4949 22.2505H1.57503C1.14018 22.2505 0.744864 22.0845 0.461899 21.8188C0.176853 21.5552 0 21.1841 0 20.7759V1.50244C0 1.09424 0.176853 0.721191 0.459818 0.455566C0.742783 0.189941 1.14018 0.0239258 1.57503 0.0239258ZM5.25774 11.7915C4.88114 11.7915 4.57945 11.5063 4.57945 11.1548C4.57945 10.8032 4.88531 10.5181 5.25774 10.5181H15.7691C16.1456 10.5181 16.4473 10.8032 16.4473 11.1548C16.4473 11.5063 16.1436 11.7915 15.7691 11.7915H5.25774Z" fill="white"/>
</svg>
