<svg width="24" height="25" viewBox="0 0 24 25" fill="none" xmlns="http://www.w3.org/2000/svg">
<path fill-rule="evenodd" clip-rule="evenodd" d="M10.3242 3.48221L9.22656 9.6729L8.11328 7.81157C5.71484 8.87983 4.36914 10.6415 4.16992 13.3522C2.20117 9.53205 3.39648 6.10843 5.89258 4.10193L4.75586 2.20377L10.3242 3.48221ZM14.7715 0.0239258H22.8555C23.1699 0.0239258 23.457 0.166938 23.6641 0.396624C23.8711 0.626309 24 0.942669 24 1.2937V8.26661C24 8.61548 23.8711 8.934 23.6641 9.16369C23.6406 9.18969 23.6172 9.21352 23.5918 9.23519C23.3926 9.42154 23.1348 9.53639 22.8555 9.53639H14.7715C14.457 9.53639 14.1699 9.39337 13.9629 9.16369C13.7559 8.934 13.627 8.61764 13.627 8.26661V1.2937C13.627 0.947003 13.7559 0.630643 13.9629 0.39879L13.9648 0.396624C14.1699 0.166938 14.457 0.0239258 14.7715 0.0239258ZM1.14453 14.5136H9.22852C9.54297 14.5136 9.83008 14.6566 10.0371 14.8863C10.2441 15.116 10.373 15.4324 10.373 15.7834V22.7563C10.373 23.1052 10.2441 23.4237 10.0371 23.6534C10.0137 23.6794 9.99023 23.7032 9.96484 23.7249C9.76562 23.9112 9.50781 24.0261 9.22852 24.0261H1.14453C0.830078 24.0261 0.542969 23.8831 0.335938 23.6534C0.128906 23.4237 0 23.1052 0 22.7542V15.7812C0 15.4324 0.128906 15.1139 0.335938 14.8842C0.359375 14.8582 0.386719 14.8322 0.412109 14.8105C0.611328 14.6241 0.867188 14.5136 1.14453 14.5136ZM8.83789 16.2124H1.5332V22.323H8.83984V16.2124H8.83789ZM22.4668 1.7249H15.1621V7.83541H22.4688V1.7249H22.4668ZM13.8672 22.0261L14.9648 15.8354L16.0781 17.6967C18.4766 16.6285 19.8223 14.869 20.0234 12.1583C21.9922 15.9784 20.7969 19.4042 18.3008 21.4085L19.4375 23.3067L13.8672 22.0261Z" fill="white"/>
</svg>
