<svg width="24" height="25" viewBox="0 0 24 25" fill="none" xmlns="http://www.w3.org/2000/svg">
<path fill-rule="evenodd" clip-rule="evenodd" d="M19.8416 2.89507L21.5639 4.61756C22.0172 5.07088 22.0172 5.8125 21.5639 6.26582L20.177 7.65276C20.5596 8.36723 20.8516 9.13736 21.0373 9.94811H22.834C23.4752 9.94811 23.9998 10.4727 23.9998 11.1138V13.5495C23.9998 14.1908 23.4752 14.7154 22.834 14.7154H20.8732C20.6328 15.5089 20.2889 16.2576 19.8568 16.9455L21.1287 18.217C21.582 18.6707 21.582 19.4123 21.1287 19.8655L19.4064 21.5879C18.9531 22.0411 18.2113 22.0411 17.7582 21.5879L16.3711 20.2008C15.6568 20.5836 14.8865 20.8758 14.0756 21.0614V22.8581C14.0756 23.4991 13.5512 24.0237 12.91 24.0237H10.4744C9.8332 24.0237 9.30859 23.4991 9.30859 22.8581V20.8973C8.51504 20.6567 7.76641 20.3127 7.07871 19.8807L5.80703 21.1526C5.35332 21.6059 4.61172 21.6059 4.1584 21.1526L2.43613 19.4303C1.98281 18.977 1.98281 18.2354 2.43613 17.782L3.82324 16.3949C3.44043 15.6806 3.14824 14.9105 2.96289 14.0997H1.16563C0.524609 14.0997 0 13.5753 0 12.9341V10.4983C0 9.85709 0.524609 9.33267 1.16563 9.33267H3.12637C3.36699 8.5391 3.71094 7.79046 4.14277 7.10256L2.87109 5.83105C2.41777 5.37753 2.41777 4.63572 2.87109 4.18259L4.59355 2.4601C5.04688 2.00677 5.78848 2.00677 6.2418 2.4601L7.62871 3.84703C8.34316 3.46422 9.11328 3.17202 9.92422 2.98647V1.18977C9.92422 0.548544 10.4488 0.0239258 11.0898 0.0239258H13.5256C14.1666 0.0239258 14.6912 0.548544 14.6912 1.18977V3.14995C15.485 3.39039 16.2338 3.73434 16.9221 4.16638L18.193 2.89507C18.6467 2.44174 19.3883 2.44174 19.8416 2.89507ZM12 7.23498C14.6445 7.23498 16.7889 9.37955 16.7889 12.0239C16.7889 14.6681 14.6445 16.8129 12 16.8129C9.35566 16.8129 7.21113 14.6683 7.21113 12.0239C7.21113 9.37955 9.35566 7.23498 12 7.23498Z" fill="white"/>
</svg>
