<svg width="24" height="16" viewBox="0 0 24 16" fill="none" xmlns="http://www.w3.org/2000/svg">
<g clip-path="url(#clip0_355_2182)">
<path fill-rule="evenodd" clip-rule="evenodd" d="M5.07206 0.523926H22.1286C22.6645 0.523926 23.1112 0.646002 23.5221 1.21725C23.811 1.61863 23.9887 2.16166 23.9973 2.7656L24 3.19016V13.2513C23.9987 13.2911 23.9967 13.3315 23.9925 13.3721C23.9281 13.9811 23.7056 14.5189 23.386 14.904C23.08 15.2727 22.6859 15.5005 22.2555 15.5193L21.8982 15.5239H5.07206V15.5217C4.98573 15.5219 4.90029 15.4983 4.82095 15.4525C4.7416 15.4067 4.67002 15.3396 4.61058 15.2553L0.175453 8.9519C-0.0472967 8.63737 -0.0614061 8.14042 0.152953 7.80303L4.55855 0.872669C4.67494 0.661214 4.86164 0.523926 5.07206 0.523926ZM11.5488 6.60266H10.5453V10.9363H9.16106V6.60266H8.15752V5.11156H11.5488V6.60266ZM12.8742 10.9363H11.4138L12.535 5.11156H14.6736L15.7948 10.9363H14.3345L14.1753 10.0137H13.0334L12.8742 10.9363ZM13.5663 6.90091L13.2825 8.53183H13.9193L13.6424 6.90091H13.5663ZM17.4386 5.11156L17.9161 6.66787H17.9853L18.4629 5.11156H19.9647L19.0027 7.92606L19.9647 10.9363H18.4282L17.9092 9.25879H17.8469L17.3348 10.9363H15.8675L16.8088 7.98198L15.8675 5.11156H17.4386ZM3.39394 6.90785C3.62189 6.59035 3.90005 6.42719 4.22677 6.41633C4.55489 6.40333 4.84308 6.54989 5.09133 6.85609C5.32547 7.16103 5.44514 7.5378 5.45189 7.98407C5.45555 8.43052 5.34487 8.8124 5.11842 9.12775C4.89844 9.45106 4.62042 9.61839 4.28602 9.63184C3.95311 9.64307 3.66802 9.49632 3.43228 9.1893C3.19163 8.87634 3.06712 8.49793 3.06197 8.04933C3.05686 7.60509 3.16748 7.22321 3.39394 6.90785Z" fill="white"/>
</g>
<defs>
<clipPath id="clip0_355_2182">
<rect width="24" height="15" fill="white" transform="translate(0 0.523926)"/>
</clipPath>
</defs>
</svg>
