<svg width="24" height="25" viewBox="0 0 24 25" fill="none" xmlns="http://www.w3.org/2000/svg">
<path fill-rule="evenodd" clip-rule="evenodd" d="M0 22.1206C0 13.8233 7.29102 18.4169 7.8457 13.3323C7.90625 12.7783 6.69141 11.3157 6.41211 10.3042C5.82617 9.2823 5.60156 7.66019 6.25391 6.58159C6.51367 6.15141 6.4043 5.02034 6.4043 4.43068C6.4043 -1.44499 15.9844 -1.44499 15.9844 4.43068C15.9844 5.17353 15.8242 6.10944 16.2012 6.68861C16.8301 7.66649 16.5039 9.39771 15.9746 10.3063C15.6367 11.3661 14.3438 12.7301 14.4531 13.3323C14.532 13.8433 14.7206 14.3275 15.0039 14.7467L14.9102 14.8453C14.7569 15.0094 14.6349 15.204 14.5508 15.4182L14.5273 15.4832C14.4576 15.6796 14.4219 15.8879 14.4219 16.0981C14.4228 16.3347 14.468 16.5688 14.5547 16.7864L14.6074 16.906C14.5238 16.9275 14.4416 16.9548 14.3613 16.9878C13.953 17.1719 13.6283 17.5207 13.457 17.9594L13.418 18.0832C13.3637 18.2599 13.336 18.4448 13.3359 18.6309V19.7494C13.3356 19.9815 13.3787 20.2113 13.4629 20.4251L13.5098 20.5342C13.5866 20.6983 13.686 20.849 13.8047 20.9812L13.832 21.0105C13.9804 21.1695 14.1553 21.297 14.3477 21.3862L14.4785 21.4365C14.4353 21.5084 14.398 21.5843 14.3672 21.6632C14.3082 21.8063 14.2675 21.9574 14.2461 22.1122L0 22.1206ZM22.4922 15.7623C22.4528 15.719 22.4057 15.6846 22.3537 15.6612C22.3017 15.6378 22.2458 15.6258 22.1895 15.6259C22.133 15.6253 22.077 15.6371 22.025 15.6605C21.9729 15.684 21.9259 15.7186 21.8867 15.7623L21.4258 16.2659C21.3007 16.18 21.1702 16.1035 21.0352 16.0372C20.899 15.9708 20.7594 15.9127 20.6172 15.863V15.1034C20.6177 15.0431 20.6071 14.9832 20.5859 14.9274C20.5647 14.8715 20.5334 14.8207 20.4938 14.7779C20.4541 14.7352 20.407 14.7013 20.3551 14.6783C20.3032 14.6553 20.2476 14.6436 20.1914 14.6438H19.3027C19.2471 14.6435 19.1919 14.6552 19.1406 14.6783C19.0892 14.7014 19.0428 14.7353 19.0039 14.7781C18.9629 14.82 18.9305 14.8705 18.9087 14.9265C18.8868 14.9824 18.876 15.0427 18.877 15.1034V15.798C18.7308 15.8347 18.5872 15.8824 18.4473 15.9407C18.3129 15.9965 18.1824 16.0624 18.0566 16.1379L17.5391 15.5965C17.5017 15.5527 17.4561 15.5178 17.4052 15.4943C17.3544 15.4708 17.2995 15.4591 17.2441 15.4601C17.1877 15.4597 17.1318 15.4716 17.0798 15.4951C17.0278 15.5185 16.9807 15.553 16.9414 15.5965L16.3203 16.2659C16.2796 16.308 16.2471 16.3586 16.225 16.4144C16.2028 16.4703 16.1914 16.5305 16.1914 16.5912C16.1914 16.652 16.2028 16.7121 16.225 16.768C16.2471 16.8239 16.2796 16.8744 16.3203 16.9165L16.7793 17.4117C16.6994 17.5458 16.6289 17.6861 16.5684 17.8314C16.5069 17.9779 16.4528 18.1278 16.4062 18.2805H15.6973C15.6411 18.2796 15.5854 18.2909 15.5334 18.3136C15.4814 18.3362 15.4341 18.3699 15.3944 18.4126C15.3547 18.4552 15.3234 18.506 15.3023 18.5619C15.2812 18.6177 15.2707 18.6776 15.2715 18.7379V19.6927C15.2725 19.8135 15.3178 19.929 15.3974 20.0142C15.4771 20.0995 15.5848 20.1475 15.6973 20.1481H16.3457C16.3787 20.3052 16.4224 20.4595 16.4766 20.6097C16.5302 20.7588 16.5915 20.9045 16.6602 21.0462L16.1562 21.5855C16.1154 21.6257 16.083 21.6747 16.0611 21.7293C16.0392 21.7839 16.0284 21.8429 16.0293 21.9024C16.0287 21.963 16.0397 22.0232 16.0615 22.0791C16.0833 22.135 16.1156 22.1856 16.1562 22.2276L16.7793 22.8971C16.8607 22.9807 16.9694 23.0267 17.082 23.0251C17.1941 23.0268 17.3022 22.9808 17.3828 22.8971L17.8438 22.3934C17.9688 22.4794 18.0993 22.5559 18.2344 22.6222C18.37 22.6882 18.5089 22.7463 18.6504 22.7963V23.556C18.6504 23.6779 18.6955 23.7947 18.7757 23.8809C18.8559 23.9671 18.9647 24.0155 19.0781 24.0155H19.9648C20.0205 24.0159 20.0756 24.0042 20.127 23.9811C20.1783 23.958 20.2248 23.924 20.2637 23.8812C20.3046 23.8394 20.3371 23.7889 20.3589 23.7329C20.3808 23.6769 20.3916 23.6167 20.3906 23.556V22.8614C20.5368 22.8246 20.6804 22.777 20.8203 22.7187C20.9589 22.6607 21.0945 22.5948 21.2266 22.5214L21.7285 23.0628C21.7661 23.107 21.812 23.142 21.8632 23.1655C21.9144 23.1891 21.9697 23.2005 22.0254 23.1992C22.0817 23.2012 22.1378 23.19 22.1897 23.1664C22.2416 23.1429 22.2882 23.1075 22.3262 23.0628L22.9551 22.3934C23.0338 22.3064 23.0774 22.1895 23.0762 22.0682C23.0772 22.008 23.067 21.9483 23.0462 21.8924C23.0254 21.8365 22.9944 21.7857 22.9551 21.7429L22.4883 21.2477C22.5682 21.1136 22.6387 20.9733 22.6992 20.828C22.7613 20.6815 22.8161 20.5316 22.8633 20.3789H23.5703C23.6264 20.3798 23.6822 20.3685 23.7342 20.3458C23.7862 20.3231 23.8334 20.2895 23.8731 20.2468C23.9128 20.2042 23.9442 20.1534 23.9653 20.0975C23.9864 20.0416 23.9969 19.9818 23.9961 19.9214V18.975C23.9963 18.9158 23.9855 18.857 23.9644 18.8023C23.9433 18.7475 23.9122 18.6978 23.873 18.6561C23.8343 18.6119 23.7873 18.5769 23.7351 18.5534C23.683 18.5299 23.6268 18.5184 23.5703 18.5197H22.9219C22.8866 18.3646 22.8429 18.2118 22.791 18.0622C22.7389 17.9139 22.6775 17.7695 22.6074 17.6299L23.1094 17.0822C23.1508 17.0421 23.1838 16.9928 23.206 16.9378C23.2283 16.8828 23.2393 16.8233 23.2383 16.7633C23.2385 16.7028 23.2271 16.6429 23.205 16.5874C23.1828 16.5318 23.1503 16.4817 23.1094 16.4401L22.4922 15.7623ZM19.6348 17.4579C19.8681 17.4566 20.0992 17.5058 20.3145 17.6027C20.7322 17.7907 21.0642 18.1481 21.2383 18.5973C21.328 18.828 21.3742 19.0755 21.3742 19.3255C21.3742 19.5755 21.328 19.823 21.2383 20.0537C21.0642 20.5029 20.7322 20.8603 20.3145 21.0483C20.0978 21.1453 19.8655 21.1952 19.6309 21.1952C19.3962 21.1952 19.1639 21.1453 18.9473 21.0483C18.5295 20.8603 18.1975 20.5029 18.0234 20.0537C17.9337 19.823 17.8875 19.5755 17.8875 19.3255C17.8875 19.0755 17.9337 18.828 18.0234 18.5973C18.1975 18.1481 18.5295 17.7907 18.9473 17.6027C19.1619 17.506 19.3923 17.4568 19.625 17.4579H19.6348Z" fill="white"/>
</svg>
